<svg width="117" height="40" viewBox="0 0 117 40" fill="none" xmlns="http://www.w3.org/2000/svg"><path d="M3.59772 11.4119H11.6901L14.5434 14.2651V33.1687L8.54007 39.1704H6.18532L0 32.985V24.2138L4.95055 29.1627V31.642L7.07245 33.7656L9.34849 31.4895V17.1823L3.59772 11.4119Z" fill="#A7FFD5"/><path d="M17.5273 13.004L19.6164 15.0931L22.2368 12.4727V30.8466L17.5929 35.4889L17.5273 13.004Z" fill="#A7FFD5"/><path d="M23.3643 11.4118L28.6051 16.6526H41.2069L46.5133 11.3462L23.3643 11.4118Z" fill="#A7FFD5"/><path d="M32.4521 18.1121V35.489L37.4601 30.4811V22.7543L32.4521 18.1121Z" fill="#A7FFD5"/><path d="M49.5648 11.4118L45.9491 15.0275V22.2902L49.5484 25.8879H59.4479V29.8185H49.4976L44.3076 35.0085H60.9729L64.646 31.3353V23.9808L61.2336 20.5701H50.957V16.6526H61.5698L66.8761 11.3462L49.5648 11.4118Z" fill="#A7FFD5"/><path d="M71.5197 11.4118L66.5117 16.4197V31.2451L70.3341 35.0659H80.7386L84.4741 31.332V16.6526L79.1906 11.3691V29.8185H71.5197V11.4118Z" fill="#A7FFD5"/><path d="M82.9932 11.4119H101.897L105.314 14.8276V22.3559L101.715 25.9552H98.7139L106.167 33.4081V40.0001L93.1419 27.9951V20.7653H100.106V16.6527H91.4168V18.973L82.9932 11.4119Z" fill="#A7FFD5"/><path d="M86.1113 17.7791V35.356L91.2193 30.7138V22.3557L86.1113 17.7791Z" fill="#A7FFD5"/><path d="M107.867 17.7791L113.074 12.5728V39.1375L107.867 34.2952V17.7791Z" fill="#A7FFD5"/><path d="M106.546 5.89126L105.396 4.74219L104.247 5.89126L105.396 7.04034L106.546 5.89126Z" fill="#A7FFD5"/><path d="M116.561 5.892L115.412 4.74292L114.263 5.892L115.412 7.04108L116.561 5.892Z" fill="#A7FFD5"/><path d="M113.842 8.37168L112.322 6.85156L108.89 10.2837L110.41 11.8038L113.842 8.37168Z" fill="#A7FFD5"/><path d="M108.487 6.85194L106.967 8.37207L110.399 11.8042L111.919 10.2841L108.487 6.85194Z" fill="#A7FFD5"/><path d="M106.997 3.43227L108.518 4.95239L111.95 1.52024L110.43 0.000118238L106.997 3.43227Z" fill="#A7FFD5"/><path d="M112.353 4.95299L113.873 3.43286L110.441 0.000705608L108.921 1.52083L112.353 4.95299Z" fill="#A7FFD5"/><path d="M15.7419 5.89126L14.5928 4.74219L13.4437 5.89126L14.5928 7.04034L15.7419 5.89126Z" fill="#A7FFD5"/><path d="M25.7575 5.89126L24.6084 4.74219L23.4593 5.89126L24.6084 7.04034L25.7575 5.89126Z" fill="#A7FFD5"/><path d="M23.0387 8.37119L21.5186 6.85107L18.0864 10.2832L19.6065 11.8033L23.0387 8.37119Z" fill="#A7FFD5"/><path d="M17.6822 6.85097L16.1621 8.37109L19.5943 11.8032L21.1144 10.2831L17.6822 6.85097Z" fill="#A7FFD5"/><path d="M16.1967 3.43227L17.7168 4.95239L21.149 1.52024L19.6288 0.000116552L16.1967 3.43227Z" fill="#A7FFD5"/><path d="M21.5521 4.95274L23.0723 3.43262L19.6401 0.000461468L18.12 1.52058L21.5521 4.95274Z" fill="#A7FFD5"/></svg>